/* XPM */
/* C:\Program Files\FChat\FChat.exe */
static char *icon[] = {
"32 32 9 2",
"00 c #000000",
"07 c #C0C0C0",
"08 c #808080",
"09 c #0000FF",
"0B c #00FFFF",
"0C c #FF0000",
"0E c #FFFF00",
"0F c #FFFFFF",
"   c None",
"    080808080808080808080808                                    ",
"  0807070707070707070707070700          00000000000000          ",
"  0807090909090909090909080700      00000B0B0B0B0B0B0B0000      ",
"  0807090909090909090909080700    000B0B0B0B0B0B0B0B0B0B0B00    ",
"  080709090B090909090909080700  000B0B0B090909090909090B0B0B00  ",
"  0807090909090909090909080700  000B0B0B0B0B0B0B0B0B0B0B0B0B00  ",
"  0807090909090909090909080700  000B0B0B090909090909090B0B0B00  ",
"  0807080808080808080808080700  000B0B0B0B0B0B0B0B0B0B0B0B0B00  ",
"  0807070707070707070707070700    000B0B0B0B0B0B0B0B0B0B0B00    ",
"  08000000000000000000000000        00000B0B0B0B0B0B0B0000      ",
"        0808000000000808                0000000B0B0B00          ",
"  0808080808080808080808080808                000B0B00          ",
"08070707070707070707070707070700                000B00          ",
"08070B0B0B0707070707000000000700                  0000          ",
"08070707070707070707070707070700                    00          ",
"  0000000000000000000000000000                                  ",
"              0E                    080808080808080808080808    ",
"      000000000000000000          0807070707070707070707070700  ",
"      000F0F0F0F0F0F000800        0807090909090909090909080700  ",
"      000F07070C0C07000800        0807090909090909090909080700  ",
"      000F07070C0C07000800        080709090B090909090909080700  ",
"      000F0F0F0F0F07000800        0807090909090909090909080700  ",
"      000F0808080807000800        0807090909090909090909080700  ",
"      000F0F0F0F0F070008000E0E0E0E0807080808080808080808080700  ",
"      000F0808080807000800        0807070707070707070707070700  ",
"      000F0707070707000800        08000000000000000000000000    ",
"      000F0707070707000800              0808000000000808        ",
"      000F0707070707000800        0808080808080808080808080808  ",
"      000F0707070707000800      08070707070707070707070707070700",
"      000F0707070707000800      08070B0B0B0707070707000000000700",
"      000F0707070707000800      08070707070707070707070707070700",
"      000000000000000000          0000000000000000000000000000  "};
